G04 (created by PCBNEW (2013-07-07 BZR 4022)-stable) date 26-03-2016 11:34:51*
%MOIN*%
G04 Gerber Fmt 3.4, Leading zero omitted, Abs format*
%FSLAX34Y34*%
G01*
G70*
G90*
G04 APERTURE LIST*
%ADD10C,0.00590551*%
%ADD11C,0.00787402*%
%ADD12C,0.00393701*%
G04 APERTURE END LIST*
G54D10*
G54D11*
X47440Y-36417D02*
X47440Y-40944D01*
X57086Y-36417D02*
X47440Y-36417D01*
X57086Y-41141D02*
X57086Y-36417D01*
X57283Y-41141D02*
X57086Y-41141D01*
X57283Y-36220D02*
X57283Y-41141D01*
X47244Y-36220D02*
X57283Y-36220D01*
X47244Y-40944D02*
X47244Y-36220D01*
X47440Y-40944D02*
X47244Y-40944D01*
X47440Y-46259D02*
X47440Y-41338D01*
X57086Y-46259D02*
X47440Y-46259D01*
X57086Y-41535D02*
X57086Y-46259D01*
X57283Y-41535D02*
X57086Y-41535D01*
X57283Y-46456D02*
X57283Y-41535D01*
X47244Y-46456D02*
X57283Y-46456D01*
X47244Y-41338D02*
X47244Y-46456D01*
X47440Y-41338D02*
X47244Y-41338D01*
G54D12*
X19685Y-26771D02*
X19763Y-26771D01*
X19685Y-86614D02*
X19685Y-26771D01*
X114173Y-86614D02*
X19685Y-86614D01*
X114173Y-26771D02*
X114173Y-86614D01*
X19685Y-26771D02*
X114173Y-26771D01*
X86220Y-55708D02*
X86417Y-55708D01*
X86220Y-59055D02*
X86220Y-55708D01*
X92519Y-59055D02*
X86220Y-59055D01*
X92519Y-55708D02*
X92519Y-59055D01*
X86417Y-55708D02*
X92519Y-55708D01*
X22677Y-79350D02*
X22687Y-79350D01*
X22677Y-82490D02*
X22677Y-79350D01*
X27411Y-82490D02*
X22677Y-82490D01*
X27805Y-82490D02*
X27411Y-82490D01*
X27805Y-79350D02*
X27805Y-82490D01*
X22696Y-79350D02*
X27805Y-79350D01*
M02*
