M48
;DRILL file {Pcbnew (2013-07-07 BZR 4022)-stable} date 26-03-2016 11:34:26
;FORMAT={-:-/ absolute / inch / decimal}
FMAT,2
INCH,TZ
T1C0.079
T2C0.081
T3C0.083
T4C0.118
%
G90
G05
M72
T1
X2.265Y-7.5315
X4.2358Y-8.4031
X4.4957Y-3.3913
X4.501Y-5.4587
X4.9528Y-3.7323
X4.9528Y-4.5276
X5.4094Y-3.7323
X5.4094Y-4.5276
X5.8927Y-8.0492
X8.4689Y-3.3705
X8.5472Y-5.5276
X8.5472Y-5.7283
X8.574Y-8.3906
X8.9311Y-5.4551
X9.3425Y-5.5276
X9.3425Y-5.7283
X10.2421Y-6.6299
T2
X3.8354Y-3.9669
X3.9681Y-6.2665
X4.8441Y-5.9319
X5.1768Y-6.8386
X6.1461Y-4.027
X6.7335Y-5.676
T3
X2.4492Y-5.8429
X2.5825Y-6.299
X2.8776Y-5.6075
X3.0344Y-6.327
X3.2083Y-5.9433
X8.303Y-4.4913
X8.3066Y-4.0199
X8.7008Y-3.8716
X8.7724Y-4.6277
X9.0007Y-4.2109
T4
X2.4421Y-4.2858
X2.4421Y-4.5028
X2.4421Y-6.924
X2.4421Y-7.0815
X2.4421Y-7.2587
X3.5839Y-5.6445
X3.5839Y-8.2035
X6.6941Y-6.924
X9.8043Y-5.6445
X9.8043Y-8.2035
X10.0406Y-4.5028
X10.0406Y-6.924
X10.0406Y-7.2587
X10.9461Y-4.2862
X10.9461Y-7.0815
T0
M30
