G04 (created by PCBNEW (2013-07-07 BZR 4022)-stable) date 26-03-2016 11:34:51*
%MOIN*%
G04 Gerber Fmt 3.4, Leading zero omitted, Abs format*
%FSLAX34Y34*%
G01*
G70*
G90*
G04 APERTURE LIST*
%ADD10C,0.00590551*%
%ADD11C,0.00393701*%
%ADD12C,0.019685*%
%ADD13C,0.00787402*%
%ADD14C,0.11811*%
%ADD15C,0.0591*%
%ADD16C,0.1181*%
%ADD17R,0.0787402X0.0472441*%
%ADD18C,0.0811024*%
%ADD19R,0.0590551X0.0708661*%
%ADD20C,0.0787402*%
%ADD21R,0.0708661X0.0590551*%
%ADD22R,0.055X0.055*%
%ADD23C,0.055*%
%ADD24C,0.015748*%
%ADD25C,0.0826772*%
%ADD26C,0.0590551*%
%ADD27R,0.0334646X0.0177165*%
%ADD28R,0.0393701X0.0984252*%
%ADD29R,0.0255906X0.011811*%
%ADD30O,0.19685X0.15748*%
%ADD31O,0.413386X0.452756*%
%ADD32O,0.295276X0.216535*%
%ADD33O,0.314961X0.275591*%
G04 APERTURE END LIST*
G54D10*
G54D11*
X113186Y-86260D02*
X113251Y-86457D01*
X113317Y-86260D01*
X113383Y-86457D02*
X113383Y-86326D01*
X113383Y-86260D02*
X113373Y-86270D01*
X113383Y-86279D01*
X113392Y-86270D01*
X113383Y-86260D01*
X113383Y-86279D01*
X113458Y-86326D02*
X113504Y-86457D01*
X113551Y-86326D01*
X113626Y-86457D02*
X113626Y-86260D01*
X113739Y-86457D02*
X113654Y-86345D01*
X113739Y-86260D02*
X113626Y-86373D01*
X113907Y-86457D02*
X113907Y-86354D01*
X113898Y-86335D01*
X113879Y-86326D01*
X113842Y-86326D01*
X113823Y-86335D01*
X113907Y-86448D02*
X113889Y-86457D01*
X113842Y-86457D01*
X113823Y-86448D01*
X113814Y-86429D01*
X113814Y-86410D01*
X113823Y-86392D01*
X113842Y-86382D01*
X113889Y-86382D01*
X113907Y-86373D01*
X114001Y-86457D02*
X114001Y-86326D01*
X114001Y-86363D02*
X114011Y-86345D01*
X114020Y-86335D01*
X114039Y-86326D01*
X114057Y-86326D01*
G54D12*
X109610Y-85943D02*
X109610Y-85493D01*
X110397Y-85718D02*
X109610Y-85718D01*
X109610Y-85080D02*
X109610Y-84930D01*
X109647Y-84855D01*
X109722Y-84780D01*
X109872Y-84743D01*
X110134Y-84743D01*
X110284Y-84780D01*
X110359Y-84855D01*
X110397Y-84930D01*
X110397Y-85080D01*
X110359Y-85155D01*
X110284Y-85230D01*
X110134Y-85268D01*
X109872Y-85268D01*
X109722Y-85230D01*
X109647Y-85155D01*
X109610Y-85080D01*
X109610Y-84405D02*
X110247Y-84405D01*
X110322Y-84368D01*
X110359Y-84330D01*
X110397Y-84255D01*
X110397Y-84105D01*
X110359Y-84030D01*
X110322Y-83993D01*
X110247Y-83955D01*
X109610Y-83955D01*
X110322Y-83130D02*
X110359Y-83168D01*
X110397Y-83280D01*
X110397Y-83355D01*
X110359Y-83468D01*
X110284Y-83543D01*
X110209Y-83580D01*
X110059Y-83618D01*
X109947Y-83618D01*
X109797Y-83580D01*
X109722Y-83543D01*
X109647Y-83468D01*
X109610Y-83355D01*
X109610Y-83280D01*
X109647Y-83168D01*
X109685Y-83130D01*
X110397Y-82793D02*
X109610Y-82793D01*
X109985Y-82793D02*
X109985Y-82343D01*
X110397Y-82343D02*
X109610Y-82343D01*
X110397Y-81368D02*
X109610Y-81368D01*
X109610Y-81068D01*
X109647Y-80993D01*
X109685Y-80956D01*
X109760Y-80918D01*
X109872Y-80918D01*
X109947Y-80956D01*
X109985Y-80993D01*
X110022Y-81068D01*
X110022Y-81368D01*
X110172Y-80618D02*
X110172Y-80243D01*
X110397Y-80693D02*
X109610Y-80431D01*
X110397Y-80168D01*
X110397Y-79906D02*
X109610Y-79906D01*
X110397Y-79456D01*
X109610Y-79456D01*
X109985Y-79081D02*
X109985Y-78818D01*
X110397Y-78706D02*
X110397Y-79081D01*
X109610Y-79081D01*
X109610Y-78706D01*
X110397Y-77994D02*
X110397Y-78368D01*
X109610Y-78368D01*
X109610Y-77244D02*
X110397Y-76981D01*
X109610Y-76719D01*
X110397Y-76044D02*
X110397Y-76494D01*
X110397Y-76269D02*
X109610Y-76269D01*
X109722Y-76344D01*
X109797Y-76419D01*
X109835Y-76494D01*
X110322Y-75706D02*
X110359Y-75669D01*
X110397Y-75706D01*
X110359Y-75744D01*
X110322Y-75706D01*
X110397Y-75706D01*
X109610Y-75181D02*
X109610Y-75106D01*
X109647Y-75031D01*
X109685Y-74994D01*
X109760Y-74956D01*
X109910Y-74919D01*
X110097Y-74919D01*
X110247Y-74956D01*
X110322Y-74994D01*
X110359Y-75031D01*
X110397Y-75106D01*
X110397Y-75181D01*
X110359Y-75256D01*
X110322Y-75294D01*
X110247Y-75331D01*
X110097Y-75369D01*
X109910Y-75369D01*
X109760Y-75331D01*
X109685Y-75294D01*
X109647Y-75256D01*
X109610Y-75181D01*
X111696Y-83993D02*
X110909Y-83993D01*
X111471Y-83730D01*
X110909Y-83468D01*
X111696Y-83468D01*
X111471Y-83130D02*
X111471Y-82755D01*
X111696Y-83205D02*
X110909Y-82943D01*
X111696Y-82680D01*
X111696Y-81968D02*
X111321Y-82230D01*
X111696Y-82418D02*
X110909Y-82418D01*
X110909Y-82118D01*
X110946Y-82043D01*
X110984Y-82005D01*
X111059Y-81968D01*
X111171Y-81968D01*
X111246Y-82005D01*
X111284Y-82043D01*
X111321Y-82118D01*
X111321Y-82418D01*
X111621Y-81181D02*
X111659Y-81218D01*
X111696Y-81331D01*
X111696Y-81406D01*
X111659Y-81518D01*
X111584Y-81593D01*
X111509Y-81631D01*
X111359Y-81668D01*
X111246Y-81668D01*
X111096Y-81631D01*
X111021Y-81593D01*
X110946Y-81518D01*
X110909Y-81406D01*
X110909Y-81331D01*
X110946Y-81218D01*
X110984Y-81181D01*
X111696Y-80843D02*
X110909Y-80843D01*
X111284Y-80843D02*
X111284Y-80393D01*
X111696Y-80393D02*
X110909Y-80393D01*
X110984Y-79456D02*
X110946Y-79418D01*
X110909Y-79343D01*
X110909Y-79156D01*
X110946Y-79081D01*
X110984Y-79043D01*
X111059Y-79006D01*
X111134Y-79006D01*
X111246Y-79043D01*
X111696Y-79493D01*
X111696Y-79006D01*
X110909Y-78518D02*
X110909Y-78443D01*
X110946Y-78368D01*
X110984Y-78331D01*
X111059Y-78293D01*
X111209Y-78256D01*
X111396Y-78256D01*
X111546Y-78293D01*
X111621Y-78331D01*
X111659Y-78368D01*
X111696Y-78443D01*
X111696Y-78518D01*
X111659Y-78593D01*
X111621Y-78631D01*
X111546Y-78668D01*
X111396Y-78706D01*
X111209Y-78706D01*
X111059Y-78668D01*
X110984Y-78631D01*
X110946Y-78593D01*
X110909Y-78518D01*
X111696Y-77506D02*
X111696Y-77956D01*
X111696Y-77731D02*
X110909Y-77731D01*
X111021Y-77806D01*
X111096Y-77881D01*
X111134Y-77956D01*
X110909Y-76831D02*
X110909Y-76981D01*
X110946Y-77056D01*
X110984Y-77094D01*
X111096Y-77169D01*
X111246Y-77206D01*
X111546Y-77206D01*
X111621Y-77169D01*
X111659Y-77131D01*
X111696Y-77056D01*
X111696Y-76906D01*
X111659Y-76831D01*
X111621Y-76794D01*
X111546Y-76756D01*
X111359Y-76756D01*
X111284Y-76794D01*
X111246Y-76831D01*
X111209Y-76906D01*
X111209Y-77056D01*
X111246Y-77131D01*
X111284Y-77169D01*
X111359Y-77206D01*
G54D13*
X47440Y-36417D02*
X47440Y-40944D01*
X57086Y-36417D02*
X47440Y-36417D01*
X57086Y-41141D02*
X57086Y-36417D01*
X57283Y-41141D02*
X57086Y-41141D01*
X57283Y-36220D02*
X57283Y-41141D01*
X47244Y-36220D02*
X57283Y-36220D01*
X47244Y-40944D02*
X47244Y-36220D01*
X47440Y-40944D02*
X47244Y-40944D01*
X47440Y-46259D02*
X47440Y-41338D01*
X57086Y-46259D02*
X47440Y-46259D01*
X57086Y-41535D02*
X57086Y-46259D01*
X57283Y-41535D02*
X57086Y-41535D01*
X57283Y-46456D02*
X57283Y-41535D01*
X47244Y-46456D02*
X57283Y-46456D01*
X47244Y-41338D02*
X47244Y-46456D01*
X47440Y-41338D02*
X47244Y-41338D01*
G54D11*
X19685Y-26771D02*
X19763Y-26771D01*
X19685Y-86614D02*
X19685Y-26771D01*
X114173Y-86614D02*
X19685Y-86614D01*
X114173Y-26771D02*
X114173Y-86614D01*
X19685Y-26771D02*
X114173Y-26771D01*
X86220Y-55708D02*
X86417Y-55708D01*
X86220Y-59055D02*
X86220Y-55708D01*
X92519Y-59055D02*
X86220Y-59055D01*
X92519Y-55708D02*
X92519Y-59055D01*
X86417Y-55708D02*
X92519Y-55708D01*
X22677Y-79350D02*
X22687Y-79350D01*
X22677Y-82490D02*
X22677Y-79350D01*
X27411Y-82490D02*
X22677Y-82490D01*
X27805Y-82490D02*
X27411Y-82490D01*
X27805Y-79350D02*
X27805Y-82490D01*
X22696Y-79350D02*
X27805Y-79350D01*
G54D14*
X24421Y-70814D03*
X24421Y-42858D03*
X100405Y-69240D03*
X109460Y-42862D03*
X109460Y-70814D03*
X98043Y-82035D03*
X98043Y-56444D03*
X100405Y-45027D03*
X35838Y-56444D03*
X35838Y-82035D03*
X66940Y-69240D03*
X24421Y-45027D03*
X24421Y-69240D03*
X24421Y-72586D03*
X100405Y-72586D03*
G54D15*
X52170Y-42746D03*
X52170Y-41746D03*
X52170Y-40946D03*
X52170Y-39946D03*
G54D16*
X51120Y-43946D03*
X51120Y-38546D03*
G54D17*
X31740Y-81129D03*
X31740Y-82114D03*
X31740Y-80145D03*
G54D18*
X48440Y-59318D03*
G54D19*
X47653Y-59318D03*
X49228Y-59318D03*
G54D20*
X48440Y-57704D03*
G54D18*
X39681Y-62665D03*
G54D19*
X38893Y-62665D03*
X40468Y-62665D03*
G54D20*
X39681Y-61051D03*
G54D18*
X67334Y-56759D03*
G54D21*
X67334Y-57547D03*
X67334Y-55972D03*
G54D20*
X65720Y-56759D03*
G54D18*
X61460Y-40269D03*
G54D19*
X60673Y-40269D03*
X62248Y-40269D03*
G54D20*
X61460Y-38655D03*
G54D18*
X38354Y-39669D03*
G54D19*
X37566Y-39669D03*
X39141Y-39669D03*
G54D20*
X38354Y-38055D03*
G54D18*
X51767Y-68385D03*
G54D19*
X50980Y-68385D03*
X52555Y-68385D03*
G54D20*
X51767Y-66771D03*
G54D22*
X54617Y-40954D03*
G54D23*
X54617Y-41954D03*
G54D24*
X31917Y-55826D03*
G54D25*
X32082Y-59433D03*
X30344Y-63269D03*
X25824Y-62990D03*
X24492Y-58429D03*
X28775Y-56074D03*
G54D24*
X33460Y-62153D03*
X28401Y-65696D03*
X22744Y-61559D03*
X25240Y-55188D03*
G54D21*
X32082Y-58637D03*
X32082Y-60232D03*
G54D19*
X28007Y-56078D03*
X29562Y-56078D03*
G54D21*
X24503Y-57653D03*
X24523Y-59208D03*
G54D19*
X25055Y-62968D03*
X26610Y-62988D03*
X29562Y-63263D03*
X31137Y-63263D03*
G54D24*
X80633Y-42866D03*
G54D25*
X83066Y-40199D03*
X87008Y-38715D03*
X90006Y-42109D03*
X87723Y-46276D03*
X83030Y-44912D03*
G54D24*
X84015Y-37301D03*
X90098Y-38373D03*
X91173Y-45299D03*
X84903Y-48038D03*
G54D10*
G36*
X82545Y-41221D02*
X82044Y-40720D01*
X82462Y-40302D01*
X82963Y-40803D01*
X82545Y-41221D01*
X82545Y-41221D01*
G37*
G36*
X83673Y-40093D02*
X83172Y-39592D01*
X83589Y-39174D01*
X84090Y-39676D01*
X83673Y-40093D01*
X83673Y-40093D01*
G37*
G36*
X84035Y-45410D02*
X83534Y-45911D01*
X83116Y-45494D01*
X83617Y-44993D01*
X84035Y-45410D01*
X84035Y-45410D01*
G37*
G36*
X82935Y-44311D02*
X82434Y-44812D01*
X82016Y-44394D01*
X82517Y-43893D01*
X82935Y-44311D01*
X82935Y-44311D01*
G37*
G36*
X87208Y-47276D02*
X86707Y-46774D01*
X87125Y-46357D01*
X87626Y-46858D01*
X87208Y-47276D01*
X87208Y-47276D01*
G37*
G36*
X88294Y-46162D02*
X87793Y-45661D01*
X88210Y-45243D01*
X88712Y-45744D01*
X88294Y-46162D01*
X88294Y-46162D01*
G37*
G36*
X90994Y-42626D02*
X90493Y-43128D01*
X90076Y-42710D01*
X90577Y-42209D01*
X90994Y-42626D01*
X90994Y-42626D01*
G37*
G36*
X89909Y-41513D02*
X89408Y-42014D01*
X88990Y-41596D01*
X89491Y-41095D01*
X89909Y-41513D01*
X89909Y-41513D01*
G37*
G36*
X88016Y-39230D02*
X87514Y-39731D01*
X87097Y-39314D01*
X87598Y-38813D01*
X88016Y-39230D01*
X88016Y-39230D01*
G37*
G36*
X86902Y-38117D02*
X86401Y-38618D01*
X85983Y-38200D01*
X86484Y-37699D01*
X86902Y-38117D01*
X86902Y-38117D01*
G37*
G54D26*
X105901Y-60838D03*
G54D20*
X85740Y-83905D03*
X102421Y-66299D03*
X89311Y-54551D03*
X45009Y-54586D03*
X42358Y-84031D03*
X22649Y-75314D03*
X44956Y-33913D03*
X84688Y-33704D03*
G54D27*
X41696Y-79795D03*
X41696Y-80188D03*
X41696Y-80582D03*
X42838Y-80582D03*
X42838Y-80188D03*
X42838Y-79795D03*
G54D28*
X42267Y-80200D03*
G54D29*
X49413Y-80122D03*
X49413Y-80377D03*
X49413Y-80633D03*
X50122Y-80633D03*
X50122Y-80377D03*
X50122Y-80122D03*
G54D30*
X96574Y-69685D03*
G54D31*
X89094Y-65649D03*
G54D32*
X93031Y-69944D03*
X85157Y-69944D03*
G54D33*
X85157Y-73625D03*
X92834Y-73625D03*
G54D30*
X81909Y-69685D03*
G54D20*
X58927Y-80492D03*
X49527Y-37322D03*
X49527Y-45275D03*
X54094Y-37322D03*
X54094Y-45275D03*
X85472Y-57283D03*
X93425Y-57283D03*
X93425Y-55275D03*
X85472Y-55275D03*
M02*
