M48
;DRILL file {Pcbnew (2013-07-07 BZR 4022)-stable} date 26-03-2016 11:34:26
;FORMAT={-:-/ absolute / inch / decimal}
FMAT,2
INCH,TZ
T1C0.016
T2C0.031
T3C0.032
T4C0.039
T5C0.091
T6C0.114
T7C0.169
T8C0.177
T9C0.236
T10C0.315
%
G90
G05
M72
T1
X2.247Y-7.3041
X2.25Y-6.0965
X2.2549Y-7.4006
X2.6535Y-7.6496
X2.6614Y-7.3278
X2.6654Y-7.3711
X2.7175Y-6.7884
X2.748Y-6.937
X2.7618Y-6.563
X2.8445Y-7.0512
X2.8898Y-6.5659
X2.8996Y-7.7264
X2.9459Y-7.1348
X3.0039Y-7.6535
X3.0512Y-7.4232
X3.0768Y-6.8248
X3.1161Y-7.6378
X3.1366Y-7.3283
X3.1634Y-6.9173
X3.1654Y-5.5516
X3.1713Y-7.4193
X3.2323Y-7.6122
X3.3573Y-6.1781
X3.9567Y-7.9213
X3.987Y-4.1091
X4.0752Y-6.7811
X4.0827Y-7.9803
X4.0894Y-5.6937
X4.1152Y-6.4134
X4.2965Y-3.4732
X4.3681Y-8.0945
X4.4142Y-3.2598
X4.4161Y-7.9807
X4.4961Y-8.2382
X4.565Y-7.9291
X4.5669Y-8.2343
X4.6634Y-3.2598
X4.8524Y-7.9646
X4.872Y-8.1181
X5.0492Y-5.939
X5.0709Y-8.2402
X5.0965Y-7.9764
X5.1161Y-8.0374
X5.1902Y-7.4051
X5.2677Y-7.9587
X5.3248Y-6.9827
X5.3346Y-8.1024
X5.5047Y-8.2965
X5.5778Y-7.9065
X5.6031Y-8.3252
X5.6447Y-8.2923
X5.6882Y-5.2898
X5.6894Y-5.2469
X5.6953Y-5.7843
X5.9764Y-8.2854
X5.9787Y-8.4126
X5.9902Y-8.1398
X6.0378Y-7.439
X6.0461Y-7.3618
X6.0811Y-6.7909
X6.1039Y-5.2894
X6.1051Y-5.2071
X6.1388Y-7.1959
X6.1417Y-6.6614
X6.1461Y-5.7386
X6.1591Y-5.385
X6.2067Y-7.627
X6.2067Y-7.7913
X6.2736Y-4.1959
X6.2886Y-6.5555
X6.2898Y-8.0945
X6.5563Y-7.3606
X6.5634Y-5.8004
X6.6646Y-7.6827
X6.7268Y-6.3839
X6.7744Y-6.3594
X6.7791Y-7.0579
X6.787Y-6.828
X6.8138Y-7.0591
X6.8236Y-6.8626
X6.8583Y-8.0433
X6.8661Y-6.4098
X6.8673Y-6.6339
X6.8681Y-6.4752
X6.8909Y-8.0839
X6.9035Y-7.439
X7.0108Y-7.4931
X7.1008Y-6.665
X7.1693Y-6.5535
X7.2232Y-6.1559
X7.2268Y-6.1957
X7.2768Y-6.8094
X7.3264Y-7.4429
X7.3268Y-7.3539
X7.3335Y-6.1102
X7.3413Y-5.5248
X7.3591Y-6.0819
X7.3858Y-6.0409
X7.4067Y-6.0087
X7.4079Y-7.2421
X7.4327Y-5.9728
X7.4567Y-8.1929
X7.4618Y-6.1429
X7.4622Y-5.8972
X7.4642Y-7.2016
X7.4646Y-7.1638
X7.4657Y-7.1343
X7.4669Y-6.772
X7.4673Y-6.6992
X7.4677Y-6.5512
X7.4709Y-7.1035
X7.4744Y-5.2898
X7.4819Y-5.2173
X7.5291Y-5.9461
X7.564Y-5.2982
X7.564Y-5.9154
X7.6476Y-7.3366
X7.6512Y-7.5059
X7.6839Y-8.1963
X7.7067Y-6.5488
X7.7122Y-8.1244
X7.7215Y-6.7008
X7.761Y-8.1264
X7.7618Y-4.9478
X7.7654Y-7.2969
X7.8165Y-5.7685
X7.8331Y-6.8945
X7.8642Y-6.872
X7.8701Y-4.9319
X7.8907Y-6.8504
X7.8953Y-6.5114
X7.9291Y-6.6476
X7.938Y-6.5492
X7.9409Y-6.5837
X7.9409Y-6.6161
X7.9795Y-8.0492
X8.0079Y-8.0744
X8.0232Y-6.4933
X8.026Y-8.4425
X8.037Y-8.1087
X8.0622Y-8.1378
X8.0748Y-5.0266
X8.0776Y-4.1929
X8.0949Y-4.4421
X8.0988Y-8.172
X8.1008Y-8.2122
X8.2472Y-3.2598
X8.4937Y-8.1634
X8.4957Y-8.3307
X8.5488Y-3.2701
X8.889Y-8.0449
X8.8894Y-8.137
X8.935Y-8.0433
X8.963Y-8.3012
X9.002Y-5.2469
X9.1394Y-5.2535
X9.1531Y-8.2559
X9.1748Y-5.5236
X9.2402Y-5.524
X9.2421Y-5.4252
X9.3008Y-8.0276
X9.3449Y-5.3059
X9.4185Y-8.2559
X9.4189Y-8.2988
X9.5776Y-5.3071
X9.6457Y-5.4528
X9.9787Y-8.0268
X10.0862Y-5.1043
X10.1614Y-6.5126
T2
X3.174Y-8.0146
X3.174Y-8.113
X3.174Y-8.2114
T3
X5.4617Y-4.0954
X5.4617Y-4.1954
T4
X5.217Y-3.9946
X5.217Y-4.0946
X5.217Y-4.1746
X5.217Y-4.2746
T5
X5.112Y-3.8546
X5.112Y-4.3946
T6
X8.1713Y-6.9685G85X8.2106Y-6.9685
G05
X9.6378Y-6.9685G85X9.6772Y-6.9685
G05
T7
X9.2638Y-6.9945G85X9.3425Y-6.9945
G05
T8
X8.4803Y-6.9945G85X8.5512Y-6.9945
G05
T9
X8.4961Y-7.3626G85X8.5354Y-7.3626
G05
X9.2638Y-7.3626G85X9.3031Y-7.3626
G05
T10
X8.9094Y-6.5394G85X8.9094Y-6.5906
G05
T0
M30
